<svg height="800" viewBox="0 0 24 24" width="800" xmlns="http://www.w3.org/2000/svg"><g fill="none"><path d="m24 0v24h-24v-24zm-11.4065099 23.257841-.0115499.0016721-.0710625.0355308-.0189986.003703-.0151639-.003703-.0710604-.0355308c-.0098319-.0031469-.0186055-.0004896-.0235127.0053943l-.0041098.0109236-.0170913.4272787.0049537.0203897.0110101.0122145.1035729.0739792.0148714.0039203.0117661-.0039203.103575-.0739792.0126036-.0160406.0033589-.0165636-.0170917-.4272787c-.0019886-.0101297-.0085498-.0165317-.0160709-.01799zm.2649005-.1125548-.0138421.002021-.1847042.0923525-.0099621.0102455-.0026879.0112062.0179.4295275.0048406.0127789.0084511.0070753.2009542.0927458c.0120883.003661.0228931-.0002514.0284884-.0080125l.0039949-.0140625-.0341458-.6146308c-.0023895-.0119434-.0102675-.0195315-.0192871-.0212469zm-.7153433.002021c-.0098295-.0049147-.020871-.0020466-.0274108.0052882l-.0057192.0139377-.0341459.6146308c-.0006391.0115.0070385.0206963.0168767.0234037l.0156079-.0013287.2009546-.0927458.0094391-.0080584.0038546-.0117958.0178967-.4295275-.003156-.0125938-.0094919-.0088579z"/><path d="m11.9999 13.4141 2.9468 2.9467-9.6967 5.5984c-.52631077.3038769-1.12187787.2479243-1.56801531-.041699l-.10829469-.077201zm-8.9999-8.99995 7.5857 7.58575-7.5857 7.5857zm13.7398 4.26009 3.5102 2.02666c1 .5773 1 2.0207 0 2.598l-3.5102 2.0266-3.3256-3.3256zm-11.4898-6.63364 9.6966 5.59836-2.9467 2.94674-8.42619-8.42626c.45468-.3549 1.10612-.44803 1.67629-.11884z" fill="#09244b"/></g></svg>