<svg xmlns="http://www.w3.org/2000/svg" viewBox="0 0 24 24" fill="none" stroke="#000000" stroke-linecap="round" stroke-linejoin="round" id="Brand-Bluesky--Streamline-Tabler" height="24" width="24">
  <desc>
    Brand Bluesky Streamline Icon: https://streamlinehq.com
  </desc>
  <path d="M6.335 5.144C4.681 3.945 2 3.017 2 5.97c0 0.59 0.35 4.953 0.556 5.661C3.269 14.094 5.686 14.381 8 14c-4.045 0.665 -4.889 3.208 -2.667 5.41C6.363 20.428 7.246 21 8 21c2 0 3.134 -2.769 3.5 -3.5 0.333 -0.667 0.5 -1.167 0.5 -1.5 0 0.333 0.167 0.833 0.5 1.5 0.366 0.731 1.5 3.5 3.5 3.5 0.754 0 1.637 -0.571 2.667 -1.59C20.889 17.207 20.045 14.664 16 14c2.314 0.38 4.73 0.094 5.444 -2.369 0.206 -0.708 0.556 -5.072 0.556 -5.661 0 -2.953 -2.68 -2.025 -4.335 -0.826C15.372 6.806 12.905 10.192 12 12c-0.905 -1.808 -3.372 -5.194 -5.665 -6.856z" stroke-width="2"></path>
</svg>