<svg display="block" height="768" preserveAspectRatio="none" viewBox="0 0 2048 1024" width="1536" xmlns="http://www.w3.org/2000/svg"><path d="m0 0h2048v1024h-2048z"/><path d="m649.963 697.138 25.922.119.428 90.545c10.538-12.22 19.797-22.141 37.013-23.821 75.809-7.4 98.169 86.748 58.2 138.058-2.891 3.01-6.207 6.502-9.503 9.014-14.031 10.598-31.723 15.133-49.122 12.592-16.443-2.442-26.907-10.298-36.416-23.233l-2.923 21.397-23.716.01z" fill="#fefefe"/><path d="m717.075 785.339c10.24.167 21.045 1.587 28.953 8.498 31.478 27.512 26.932 103.285-22.22 108.293-11.204.108-21.623-.745-30.817-8.132-24.843-19.961-26.433-68.576-7.362-92.799 8.68-11.027 18.322-14.418 31.446-15.86z"/><path d="m1144.6 764.333c34.21-4.934 64.87 13.413 74.04 47.058 3.92 14.375 4.31 24.68 4.21 39.583l-115.75-.082c1.57 19.279 7.46 40.228 26.97 47.632 25.23 9.574 49.67 3.061 60.35-22.242l.7-2.268c3.21-2.915 21.1-1.143 26.71-.968-7.86 28.806-23 45.437-54.7 50.133-79.1 11.718-107.58-75.828-70.12-133.182 9.73-14.9 29.48-23.36 47.59-25.664z" fill="#fefefe"/><path d="m1150.68 785.36c30.92-.971 42.61 16.712 45.75 45.159l-41.38.086c-15.75.007-31.7-.299-47.47-.474 4.97-25.902 14.92-41.739 43.1-44.771z"/><path d="m896.779 54.0578c8.909-.1701 18.078-.0952 27.012-.1344l-.011 93.1586c12.919-15.935 22.947-23.338 44.577-24.135 27.163-1.001 50.413 10.274 56.103 39.17 3.09 15.663 1.89 32.896 1.97 48.945l.4 76.734-27.692.128.067-90.436c.08-14.175 1.625-34.455-8.986-44.957-13.743-13.098-40.895-8.744-53.454 3.932-17.307 17.468-13.023 48.669-12.932 71.954l.033 59.378-27.237.058z" fill="#fefefe"/><path d="m908.393 359.403c3.884-.32 10.852-.218 14.96-.28l.082 27.955c-6.402-.057-13.119-.049-19.451 1.385-31.763 7.191-4.585 70.387-21.645 93.777-11.302 15.495-19.114 18.287-36.698 22.904 9.495 2.519 18.763 4.53 26.746 10.601 32.588 24.783 2.799 84.196 21.58 103.418 7.656 7.836 19.552 7.071 29.601 7.097.159 9.263.017 18.898.015 28.194l-17.834-.492c-87.187-7.913-34.231-99.345-61.675-127.422-8.059-8.245-19.103-8.645-29.875-8.754l-.089-26.425c71.515.237 17.172-76.029 49.408-112.555 12.568-14.24 26.51-17.786 44.875-19.403z" fill="#0fd5f5"/><path d="m1126.07 358.036c2.83-.051 5.66-.056 8.5-.016 15.15.259 30.94 3.245 43.06 12.928 37.29 29.771 4.22 89.041 27.05 112.093 7.87 7.941 18.46 8.13 28.87 8.042l.01 26.672c-5.34.051-12.65.187-17.85 1.676-35.63 10.219-8.45 78.028-25.36 104.965-10.65 16.97-18.57 21.539-36.51 27.116-9.97 1.618-17.76 1.916-27.78 2.276l-.04-28.698c35.2.562 35.46-11.394 34.61-43.119-1.02-38.371-3.03-65.974 41.78-76.571-49.53-15.077-41.42-40.519-41.31-83.769.03-11.558.39-18.768-5.53-28.929-11.04-7.383-16.66-7.197-29.52-7.547z" fill="#0fd5f5"/><g fill="#fefefe"><path d="m1071.65 53.9001c8.97-.1225 18.39.0807 27.4.1323l.14 139.4526c22.66-22.844 45.54-45.484 68.61-67.915 10.64-.63 24.49-.435 35.36-.579-7.33 8.1-18.65 18.666-26.64 26.641-16.61 16.772-33.35 33.419-50.22 49.937 14.03 17.024 33.93 37.821 49.04 54.406l28.67 31.454c-10.61.147-21.67-.015-32.31-.036-24.44-27.165-48.65-54.546-72.61-82.14l-.05 82.658-27.23-.062c-1.05-77.134-.17-156.583-.16-233.9489z"/><path d="m916.507 765.489c9.048-.24 17.928.079 26.965.337-19.615 58.606-41.513 117.904-62.283 176.222-11.72 32.909-38.051 30.376-67.41 30.086l-.058-24.577c22.28.464 47.412 3.033 50.809-26.945-3.748-3.199-5.995-1.426-8.693-7.989-3.855-9.379-6.609-19.2-9.805-28.854-13.375-38.576-28.633-79.247-40.992-117.908 9.111-.25 18.64-.127 27.786-.143 4.957 13.688 9.805 30.591 14.398 44.677l26.664 79.453c15.373-41.378 27.386-83.17 42.619-124.359z"/><path d="m1305.5 764.398c16.8-2.054 41.85.906 55.28 11.924 14.06 11.525 16.29 21.228 18.46 37.699l-25.65-.021c-1.49-7.31-2.82-14.13-8.57-19.534-8.97-8.432-23.4-9.248-35.12-8.857-10.68.356-20.76 1.353-28.71 9.482-3.52 3.602-5.59 10.73-5.08 15.425 3.24 29.947 72.8 16.278 93.01 38.869 7.39 6.813 10.6 13.78 11.13 24.148 2.05 39.403-28.55 48.385-60 49.96-35.7 1.261-70.25-7.49-74.93-48.863l24.96.178c7.52 26.035 27.23 28.187 51.17 27.088 14.35-.659 36.62-6.239 34.54-24.758-2.39-21.324-28.46-20.928-44.47-24.305-25.74-4.907-56.29-6.074-59.02-39.256-3.09-37.547 21.79-46.173 53-49.179z"/></g><path d="m1605.97 758.929 1.39.765c.97 5.521.53 22.813.51 29.252l-109.72 47.036c6 2.045 11.84 4.474 17.69 6.932 30.69 12.903 61.11 26.472 92.15 38.54l.08 30.735-20.16-8.186-83.39-34.729c-10.58-4.481-29.07-11.714-38.48-17.039l-.07-33.484c14.9-7.069 31.16-13.255 46.46-19.813 31.11-13.494 62.29-26.831 93.54-40.009z" fill="#0fd5f5"/><path d="m648.722 113.097 141.352 60.031.002 33.125-117.724 49.866-24.167 10.476c.148-10.276.137-20.554-.033-30.83 12.37-4.561 25.277-10.647 37.604-15.712 23.633-9.709 46.98-19.645 70.174-30.368-35.624-15.955-71.666-30.368-107.363-46.353.162-9.983.106-20.231.155-30.235z" fill="#0fd5f5"/><path d="m986.815 720.464 26.395.052.3 45.054c14.53-.152 29.67.175 44.25.281l.08 20.321-44.29.197c-.09 17.662-3.01 96.798 2.59 107.656 5.72 11.065 31.42 3.365 41 6.842l.75 2.001.01 18.981c-68.701.392-72.091-4.745-71.995-73.354l.091-61.976-25.7.242.04-21.089 25.656-.391c-.057-6.451-.817-40.757.823-44.817z" fill="#fefefe"/><path d="m1014.42 461.489c26.66-5.5 52.74 11.628 58.28 38.277s-11.55 52.751-38.19 58.333c-26.7 5.595-52.868-11.538-58.421-38.245-5.554-26.708 11.619-52.853 38.331-58.365z" fill="#ed433e"/></svg>